<svg width="63" height="66" viewBox="0 0 63 66" fill="none" xmlns="http://www.w3.org/2000/svg">
<rect width="63" height="66" rx="5" fill="white"/>
<g clip-path="url(#clip0_1_67)">
<g clip-path="url(#clip1_1_67)">
<path d="M9.26114 4.16992H53.7706C55.8811 4.16992 57.5821 5.87092 57.5821 7.98142V52.4909C57.5821 54.6014 55.8811 56.3024 53.7706 56.3024H9.26114C7.15064 56.3024 5.44964 54.6014 5.44964 52.4909V7.98142C5.41814 5.87092 7.15064 4.16992 9.26114 4.16992Z" fill="#00A79D"/>
<path d="M46.7145 36.5528H46.6515L37.548 37.3088C36.9495 37.3718 36.8235 37.4033 36.729 36.6158L35.469 23.2913C35.4375 21.8423 34.524 20.5508 33.201 20.0153C31.6575 19.3853 29.862 19.8578 28.8225 21.1493L13.3875 46.1288C12.474 47.2628 12.2535 48.8063 12.852 50.1608C13.419 51.3893 14.6475 52.1453 15.9705 52.1138H21.5145C22.05 52.1138 22.4595 51.6728 22.4595 51.1688V48.3338C22.4595 47.7983 22.0185 47.3888 21.5145 47.3888H19.8765C19.341 47.3888 18.9315 46.9478 18.9315 46.4438C18.9315 46.2548 18.9945 46.0973 19.089 45.9398L29.547 28.9613C29.8305 28.5203 30.3975 28.3628 30.87 28.6463C31.122 28.8038 31.2795 29.0873 31.311 29.3708L32.193 38.5688C32.2875 40.5533 33.894 42.1283 35.91 42.1598H36.0045L43.533 41.5298C44.0685 41.4983 44.5095 41.8763 44.5725 42.4118C44.5725 42.5693 44.5725 42.7268 44.5095 42.8528L42.903 46.7588C42.7455 47.1368 42.399 47.3573 42.021 47.3573H25.074C24.5385 47.3573 24.129 47.7668 24.129 48.3023V51.1373C24.129 51.6728 24.57 52.0823 25.074 52.0823H42.966C44.8875 52.0823 46.5885 50.7908 47.124 48.9323L50.463 40.7423C50.463 40.7423 50.463 40.7423 50.463 40.7108V40.3013C50.463 38.2538 48.7935 36.5528 46.7145 36.5528Z" fill="white"/>
<path d="M31.501 18.9746C34.4237 18.9746 36.793 16.6053 36.793 13.6826C36.793 10.7599 34.4237 8.39062 31.501 8.39062C28.5783 8.39062 26.209 10.7599 26.209 13.6826C26.209 16.6053 28.5783 18.9746 31.501 18.9746Z" fill="#1D1A4F"/>
<path d="M6.61523 59.516C6.61523 59.1065 6.89873 58.9805 7.18223 58.9805H7.49723C7.81223 58.9805 7.96973 59.1065 8.09573 59.453L9.00923 62.414L9.92273 59.453C10.0172 59.1065 10.1747 58.9805 10.5212 58.9805H10.8362C11.1197 58.9805 11.4032 59.075 11.4032 59.516V63.2645C11.4347 63.5165 11.2457 63.737 10.9622 63.7685C10.6787 63.8 10.4897 63.611 10.4582 63.3275C10.4582 63.296 10.4582 63.2645 10.4582 63.2645V60.398L9.48173 63.4535C9.41873 63.6425 9.22973 63.7685 9.04073 63.7685C8.85173 63.8 8.66273 63.674 8.59973 63.4535L7.62323 60.398V63.2645C7.65473 63.5165 7.46573 63.737 7.18223 63.7685C6.93023 63.8 6.70973 63.611 6.67823 63.3275C6.67823 63.296 6.67823 63.2645 6.67823 63.2645L6.61523 59.516Z" fill="#1D1A4F"/>
<path d="M12.3477 59.704C12.3477 59.2315 12.5997 59.1055 12.9462 59.1055H15.4347C15.7497 59.1055 15.9702 59.2 15.9702 59.515C15.9702 59.8615 15.7497 59.9245 15.4347 59.9245H13.4187V60.9325H15.2142C15.4977 60.9325 15.7182 61.027 15.7182 61.342C15.7182 61.657 15.4977 61.7515 15.2142 61.7515H13.4187V62.8855H15.4977C15.8127 62.8855 16.0332 62.98 16.0332 63.295C16.0332 63.61 15.8127 63.7045 15.4977 63.7045H12.9777C12.5997 63.7045 12.3792 63.547 12.3792 63.106L12.3477 59.704Z" fill="#1D1A4F"/>
<path d="M16.7266 59.704C16.7266 59.2315 16.9786 59.1055 17.3251 59.1055H18.6166C19.7506 59.1055 20.8216 59.6095 20.8216 61.405C20.8216 62.854 20.0026 63.7045 18.5851 63.7045H17.3251C17.0416 63.736 16.7581 63.547 16.7266 63.232C16.7266 63.169 16.7266 63.1375 16.7266 63.0745V59.704ZM17.7661 62.854H18.6481C19.4986 62.854 19.7506 62.098 19.7506 61.405C19.7506 60.4915 19.4041 59.956 18.6166 59.956H17.7346L17.7661 62.854Z" fill="#1D1A4F"/>
<path d="M23.5625 59.516C23.5625 59.2325 23.783 58.9805 24.098 58.9805C24.3815 58.9805 24.6335 59.201 24.6335 59.516V62.8235H26.3975C26.7125 62.8235 26.933 62.981 26.933 63.2645C26.933 63.548 26.681 63.7055 26.3975 63.7055H24.1925C23.909 63.737 23.6255 63.548 23.594 63.233C23.594 63.17 23.594 63.1385 23.594 63.0755L23.5625 59.516Z" fill="#1D1A4F"/>
<path d="M27.4991 59.5154C27.4676 59.2319 27.6881 58.9799 27.9716 58.9484C28.2551 58.9169 28.5071 59.1374 28.5386 59.4209C28.5386 59.4524 28.5386 59.4839 28.5386 59.5154V63.2639C28.5701 63.5474 28.3496 63.7994 28.0661 63.8309C27.7826 63.8624 27.5306 63.6419 27.4991 63.3584C27.4991 63.3269 27.4991 63.2954 27.4991 63.2639V59.5154Z" fill="#1D1A4F"/>
<path d="M29.5469 59.704C29.5469 59.2315 29.7989 59.1055 30.1454 59.1055H32.4764C32.7914 59.1055 33.0119 59.2 33.0119 59.515C33.0119 59.8615 32.7914 59.9245 32.4764 59.9245H30.5864V60.9955H32.1929C32.4764 60.9955 32.6969 61.0585 32.6969 61.405C32.6969 61.72 32.4764 61.8145 32.1929 61.8145H30.5864V63.2635C30.6179 63.547 30.3974 63.799 30.1139 63.8305C29.8304 63.862 29.5784 63.6415 29.5469 63.358C29.5469 63.3265 29.5469 63.295 29.5469 63.2635V59.704Z" fill="#1D1A4F"/>
<path d="M33.5801 59.704C33.5801 59.2315 33.8321 59.1055 34.1786 59.1055H36.6671C36.9821 59.1055 37.2026 59.2 37.2026 59.515C37.2026 59.8615 36.9821 59.9245 36.6671 59.9245H34.6196V60.9325H36.4151C36.6986 60.9325 36.9191 61.027 36.9191 61.342C36.9191 61.657 36.6986 61.7515 36.4151 61.7515H34.6196V62.8855H36.6986C37.0136 62.8855 37.2341 62.98 37.2341 63.295C37.2341 63.61 37.0136 63.7045 36.6986 63.7045H34.1786C33.8951 63.736 33.6116 63.547 33.5801 63.232C33.5801 63.169 33.5801 63.1375 33.5801 63.0745V59.704Z" fill="#1D1A4F"/>
<path d="M39.9414 59.704C39.9414 59.2315 40.1934 59.1055 40.5399 59.1055H43.0284C43.3434 59.1055 43.5639 59.2 43.5639 59.515C43.5639 59.8615 43.3434 59.9245 43.0284 59.9245H40.9809V60.9325H42.7764C43.0599 60.9325 43.2804 61.027 43.2804 61.342C43.2804 61.657 43.0599 61.7515 42.7764 61.7515H40.9809V62.8855H43.0599C43.3749 62.8855 43.5954 62.98 43.5954 63.295C43.5954 63.61 43.3749 63.7045 43.0599 63.7045H40.5399C40.1619 63.7045 39.9414 63.547 39.9414 63.106V59.704Z" fill="#EBFFFE"/>
<path d="M45.3597 59.3276C45.4227 59.1071 45.6432 58.9811 45.8637 59.0126H46.1157C46.3677 58.9811 46.6197 59.1386 46.6827 59.3906L47.9427 62.9186C48.0057 63.0446 48.0372 63.1706 48.0372 63.3281C48.0372 63.5801 47.8167 63.8006 47.5332 63.8006C47.3127 63.8321 47.1237 63.7061 47.0607 63.5171L46.7772 62.7611H45.0762L44.7927 63.5171C44.7297 63.7061 44.5407 63.8321 44.3202 63.8006C44.0682 63.8321 43.8477 63.6431 43.8477 63.3911C43.8477 63.3596 43.8477 63.3596 43.8477 63.3281C43.8477 63.2021 43.9107 63.0446 43.9422 62.9186L45.3597 59.3276ZM45.9897 60.1466L45.3597 62.0051H46.5882L45.9897 60.1466Z" fill="#EBFFFE"/>
<path d="M51.0303 61.0282C52.0068 61.2487 52.2588 61.8157 52.2588 62.3512C52.2588 63.1702 51.6288 63.8002 50.3688 63.8002C49.0458 63.8002 48.4473 63.1387 48.4473 62.6347C48.4473 62.4142 48.6363 62.1937 48.8568 62.1937H48.8883C49.4553 62.1937 49.2978 63.0127 50.3688 63.0127C50.9043 63.0127 51.2193 62.6977 51.2193 62.4142C51.2193 62.2252 51.1248 62.0362 50.7783 61.9417L49.5813 61.6267C48.6363 61.3747 48.4473 60.8392 48.4473 60.3667C48.4473 59.3272 49.3923 58.9492 50.3058 58.9492C51.1248 58.9492 52.1013 59.4217 52.1013 60.0202C52.1013 60.2722 51.8808 60.4612 51.6603 60.4297H51.6288C51.1563 60.4297 51.2193 59.7367 50.2428 59.7367C49.7703 59.7367 49.4868 59.9572 49.4868 60.2722C49.4868 60.5872 49.8648 60.6817 50.2113 60.7762L51.0303 61.0282Z" fill="#EBFFFE"/>
<path d="M53.9583 61.9088L52.6668 59.7668C52.6038 59.6723 52.5723 59.5778 52.5723 59.4833C52.5723 59.1998 52.8243 58.9793 53.0763 59.0108C53.0763 59.0108 53.0763 59.0108 53.1078 59.0108C53.3283 59.0108 53.5173 59.1053 53.5803 59.3258L54.4938 61.0268L55.4073 59.3258C55.4703 59.1368 55.6593 59.0108 55.8483 59.0108C56.1318 59.0108 56.3523 59.1998 56.3838 59.4833C56.3838 59.5778 56.3523 59.6723 56.2893 59.7668L54.9978 61.9088V63.2633C54.9978 63.5468 54.7773 63.7988 54.4623 63.7988C54.1788 63.7988 53.9268 63.5783 53.9268 63.2633L53.9583 61.9088Z" fill="#EBFFFE"/>
</g>
</g>
<defs>
<clipPath id="clip0_1_67">
<rect width="63" height="65" fill="white"/>
</clipPath>
<clipPath id="clip1_1_67">
<rect width="63" height="65" fill="white"/>
</clipPath>
</defs>
</svg>
